<svg xmlns="http://www.w3.org/2000/svg" viewBox="0 0 48 48">
  <path fill="#EA4335" d="M24 9.5c3.54 0 6.71 1.22 9.21 3.6l6.85-6.85C35.9 2.38 30.47 0 24 0 14.64 0 6.55 5.36 2.61 13.18l7.98 6.19C12.48 13.76 17.75 9.5 24 9.5Z"/>
  <path fill="#4285F4" d="M46.98 24.55c0-1.57-.15-3.09-.38-4.55H24v9.02h12.94c-.58 2.96-2.26 5.48-4.78 7.18l7.73 6c4.51-4.18 7.09-10.36 7.09-17.65Z"/>
  <path fill="#FBBC05" d="M10.59 28.64A14.42 14.42 0 0 1 9.82 24c0-1.61.28-3.17.77-4.64l-7.98-6.19A23.84 23.84 0 0 0 0 24c0 3.86.92 7.5 2.61 10.82l7.98-6.18Z"/>
  <path fill="#34A853" d="M24 48c6.48 0 11.93-2.13 15.89-5.81l-7.73-6c-2.15 1.45-4.92 2.3-8.16 2.3-6.25 0-11.52-4.22-13.41-9.91l-7.98 6.18C6.55 42.64 14.64 48 24 48Z"/>
</svg>
